<mxfile host="app.diagrams.net" modified="2021-12-28T13:55:01.683Z" agent="5.0 (Windows NT 10.0; Win64; x64) AppleWebKit/537.36 (KHTML, like Gecko) Chrome/96.0.4664.93 Safari/537.36" etag="1FyXUfZXAzq8Eg5k6-Nf" version="16.1.0" type="github">
  <diagram id="w8jrUzrfW57wzdJFS5TI" name="Page-1">
    <mxGraphModel dx="741" dy="351" grid="1" gridSize="10" guides="1" tooltips="1" connect="1" arrows="1" fold="1" page="1" pageScale="1" pageWidth="3300" pageHeight="4681" math="0" shadow="0">
      <root>
        <mxCell id="0" />
        <mxCell id="1" parent="0" />
        <mxCell id="NJuoRJdqJRR7eIrD5jr--8" style="edgeStyle=orthogonalEdgeStyle;rounded=0;orthogonalLoop=1;jettySize=auto;html=1;entryX=0;entryY=0.5;entryDx=0;entryDy=0;" edge="1" parent="1" source="NJuoRJdqJRR7eIrD5jr--1" target="NJuoRJdqJRR7eIrD5jr--6">
          <mxGeometry relative="1" as="geometry" />
        </mxCell>
        <mxCell id="NJuoRJdqJRR7eIrD5jr--17" style="edgeStyle=orthogonalEdgeStyle;rounded=0;orthogonalLoop=1;jettySize=auto;html=1;entryX=0.5;entryY=0;entryDx=0;entryDy=0;" edge="1" parent="1" source="NJuoRJdqJRR7eIrD5jr--1" target="NJuoRJdqJRR7eIrD5jr--2">
          <mxGeometry relative="1" as="geometry">
            <mxPoint x="515" y="300" as="targetPoint" />
            <Array as="points">
              <mxPoint x="518" y="285" />
              <mxPoint x="518" y="285" />
            </Array>
          </mxGeometry>
        </mxCell>
        <mxCell id="NJuoRJdqJRR7eIrD5jr--1" value="待支付" style="rounded=1;whiteSpace=wrap;html=1;" vertex="1" parent="1">
          <mxGeometry x="470" y="220" width="90" height="40" as="geometry" />
        </mxCell>
        <mxCell id="NJuoRJdqJRR7eIrD5jr--25" style="edgeStyle=orthogonalEdgeStyle;rounded=0;orthogonalLoop=1;jettySize=auto;html=1;entryX=0.5;entryY=0;entryDx=0;entryDy=0;" edge="1" parent="1" source="NJuoRJdqJRR7eIrD5jr--2" target="NJuoRJdqJRR7eIrD5jr--22">
          <mxGeometry relative="1" as="geometry" />
        </mxCell>
        <mxCell id="NJuoRJdqJRR7eIrD5jr--2" value="购买结束" style="rounded=1;whiteSpace=wrap;html=1;" vertex="1" parent="1">
          <mxGeometry x="470" y="310" width="95" height="40" as="geometry" />
        </mxCell>
        <mxCell id="NJuoRJdqJRR7eIrD5jr--10" style="edgeStyle=orthogonalEdgeStyle;rounded=0;orthogonalLoop=1;jettySize=auto;html=1;entryX=0.5;entryY=0;entryDx=0;entryDy=0;" edge="1" parent="1" source="NJuoRJdqJRR7eIrD5jr--6" target="NJuoRJdqJRR7eIrD5jr--9">
          <mxGeometry relative="1" as="geometry" />
        </mxCell>
        <mxCell id="NJuoRJdqJRR7eIrD5jr--6" value="正在支付" style="rounded=1;whiteSpace=wrap;html=1;fillColor=#FFFFFF;" vertex="1" parent="1">
          <mxGeometry x="700" y="220" width="90" height="40" as="geometry" />
        </mxCell>
        <mxCell id="NJuoRJdqJRR7eIrD5jr--13" style="edgeStyle=orthogonalEdgeStyle;rounded=0;orthogonalLoop=1;jettySize=auto;html=1;entryX=1;entryY=0.5;entryDx=0;entryDy=0;" edge="1" parent="1" source="NJuoRJdqJRR7eIrD5jr--9" target="NJuoRJdqJRR7eIrD5jr--2">
          <mxGeometry relative="1" as="geometry" />
        </mxCell>
        <mxCell id="NJuoRJdqJRR7eIrD5jr--16" style="edgeStyle=orthogonalEdgeStyle;rounded=0;orthogonalLoop=1;jettySize=auto;html=1;entryX=0.5;entryY=1;entryDx=0;entryDy=0;" edge="1" parent="1" source="NJuoRJdqJRR7eIrD5jr--9" target="NJuoRJdqJRR7eIrD5jr--11">
          <mxGeometry relative="1" as="geometry" />
        </mxCell>
        <mxCell id="NJuoRJdqJRR7eIrD5jr--9" value="支付结束" style="rounded=1;whiteSpace=wrap;html=1;fillColor=#FFFFFF;" vertex="1" parent="1">
          <mxGeometry x="705" y="310" width="80" height="40" as="geometry" />
        </mxCell>
        <mxCell id="NJuoRJdqJRR7eIrD5jr--12" style="edgeStyle=orthogonalEdgeStyle;rounded=0;orthogonalLoop=1;jettySize=auto;html=1;entryX=0.75;entryY=0;entryDx=0;entryDy=0;" edge="1" parent="1" source="NJuoRJdqJRR7eIrD5jr--11" target="NJuoRJdqJRR7eIrD5jr--1">
          <mxGeometry relative="1" as="geometry">
            <Array as="points">
              <mxPoint x="910" y="200" />
              <mxPoint x="538" y="200" />
            </Array>
          </mxGeometry>
        </mxCell>
        <mxCell id="NJuoRJdqJRR7eIrD5jr--11" value="错误提示" style="rounded=1;whiteSpace=wrap;html=1;fillColor=#FFFFFF;" vertex="1" parent="1">
          <mxGeometry x="870" y="220" width="80" height="40" as="geometry" />
        </mxCell>
        <mxCell id="NJuoRJdqJRR7eIrD5jr--20" value="" style="ellipse;html=1;shape=startState;fillColor=#000000;strokeColor=#ff0000;" vertex="1" parent="1">
          <mxGeometry x="360" y="220" width="30" height="30" as="geometry" />
        </mxCell>
        <mxCell id="NJuoRJdqJRR7eIrD5jr--21" value="" style="edgeStyle=orthogonalEdgeStyle;html=1;verticalAlign=bottom;endArrow=open;endSize=8;strokeColor=#000000;rounded=0;entryX=-0.001;entryY=0.362;entryDx=0;entryDy=0;entryPerimeter=0;exitX=0.851;exitY=0.489;exitDx=0;exitDy=0;exitPerimeter=0;" edge="1" source="NJuoRJdqJRR7eIrD5jr--20" parent="1" target="NJuoRJdqJRR7eIrD5jr--1">
          <mxGeometry relative="1" as="geometry">
            <mxPoint x="460" y="240" as="targetPoint" />
          </mxGeometry>
        </mxCell>
        <mxCell id="NJuoRJdqJRR7eIrD5jr--22" value="" style="ellipse;html=1;shape=endState;fillColor=#000000;strokeColor=#ff0000;" vertex="1" parent="1">
          <mxGeometry x="502" y="390" width="30" height="30" as="geometry" />
        </mxCell>
        <mxCell id="NJuoRJdqJRR7eIrD5jr--26" value="扫描付款二维码" style="text;html=1;strokeColor=none;fillColor=none;align=center;verticalAlign=middle;whiteSpace=wrap;rounded=0;" vertex="1" parent="1">
          <mxGeometry x="600" y="210" width="60" height="30" as="geometry" />
        </mxCell>
        <mxCell id="NJuoRJdqJRR7eIrD5jr--27" value="用户关闭支付端界面" style="text;html=1;strokeColor=none;fillColor=none;align=center;verticalAlign=middle;whiteSpace=wrap;rounded=0;" vertex="1" parent="1">
          <mxGeometry x="750" y="270" width="70" height="20" as="geometry" />
        </mxCell>
        <mxCell id="NJuoRJdqJRR7eIrD5jr--28" value="[支付失败]" style="text;html=1;strokeColor=none;fillColor=none;align=center;verticalAlign=middle;whiteSpace=wrap;rounded=0;" vertex="1" parent="1">
          <mxGeometry x="830" y="300" width="60" height="30" as="geometry" />
        </mxCell>
        <mxCell id="NJuoRJdqJRR7eIrD5jr--29" value="[支付成功]" style="text;html=1;strokeColor=none;fillColor=none;align=center;verticalAlign=middle;whiteSpace=wrap;rounded=0;" vertex="1" parent="1">
          <mxGeometry x="600" y="300" width="60" height="30" as="geometry" />
        </mxCell>
        <mxCell id="NJuoRJdqJRR7eIrD5jr--30" value="用户关闭购买界面" style="text;html=1;strokeColor=none;fillColor=none;align=center;verticalAlign=middle;whiteSpace=wrap;rounded=0;" vertex="1" parent="1">
          <mxGeometry x="530" y="270" width="50" height="20" as="geometry" />
        </mxCell>
      </root>
    </mxGraphModel>
  </diagram>
</mxfile>
